<svg width="24" height="24" viewBox="0 0 24 24" fill="none" xmlns="http://www.w3.org/2000/svg">
  <path d="M9.9345 1.19225C10.2705 1.11158 10.6074 1.05933 10.9453 1.0355C11.2831 1.01183 11.6218 1 11.9615 1C13.3872 1 14.7382 1.2535 16.0145 1.7605C17.2907 2.26767 18.4246 2.969 19.4163 3.8645C20.4079 4.76 21.2198 5.81767 21.852 7.0375C22.484 8.25733 22.8667 9.57817 23 11H22C21.8705 9.73583 21.525 8.5605 20.9635 7.474C20.402 6.3875 19.6818 5.44517 18.803 4.647C17.924 3.849 16.9178 3.216 15.7845 2.748C14.6512 2.28017 13.4461 2.03467 12.1692 2.0115L14.1038 3.94625L13.3962 4.65375L9.9345 1.19225ZM14.0655 22.8078C13.7295 22.8884 13.3926 22.9407 13.0548 22.9645C12.7169 22.9882 12.3782 23 12.0385 23C10.6128 23 9.26183 22.7465 7.9855 22.2395C6.70933 21.7323 5.57542 21.031 4.58375 20.1355C3.59208 19.24 2.78017 18.1823 2.148 16.9625C1.516 15.7427 1.13333 14.4218 1 13H2C2.13333 14.2642 2.47983 15.4395 3.0395 16.526C3.599 17.6125 4.31817 18.5548 5.197 19.353C6.076 20.151 7.08217 20.784 8.2155 21.252C9.34883 21.7198 10.5539 21.9653 11.8308 21.9885L9.89625 20.0538L10.6038 19.3463L14.0655 22.8078Z" fill="#5EE192"/>
  <path d="M14.25 12.5C13.9739 12.5 13.75 12.7239 13.75 13C13.75 13.2761 13.9739 13.5 14.25 13.5V12.5ZM14.255 13.5C14.5311 13.5 14.755 13.2761 14.755 13C14.755 12.7239 14.5311 12.5 14.255 12.5V13.5ZM15.5 9.5V9V9.5ZM15.8571 8H16.3571V7H15.8571V8ZM8.5 9.5V9V9.5ZM14.25 13.5H14.255V12.5H14.25V13.5ZM14 13C14 12.8619 14.1119 12.75 14.25 12.75V13.75C14.6642 13.75 15 13.4142 15 13H14ZM14.25 12.75C14.3881 12.75 14.5 12.8619 14.5 13H13.5C13.5 13.4142 13.8358 13.75 14.25 13.75V12.75ZM14.5 13C14.5 13.1381 14.3881 13.25 14.25 13.25V12.25C13.8358 12.25 13.5 12.5858 13.5 13H14.5ZM14.25 13.25C14.1119 13.25 14 13.1381 14 13H15C15 12.5858 14.6642 12.25 14.25 12.25V13.25ZM16 10.5V15.5H17V10.5H16ZM15.5 16H8.5V17H15.5V16ZM8 15.5V8.5H7V15.5H8ZM8.5 16C8.22386 16 8 15.7761 8 15.5H7C7 16.3284 7.67157 17 8.5 17V16ZM16 15.5C16 15.7761 15.7761 16 15.5 16V17C16.3284 17 17 16.3284 17 15.5H16ZM17 10.5C17 9.67157 16.3284 9 15.5 9L15.5 10C15.7761 10 16 10.2239 16 10.5H17ZM8.5 8H15.8571V7H8.5V8ZM8 8.5C8 8.22386 8.22386 8 8.5 8V7C7.67157 7 7 7.67157 7 8.5H8ZM7 8.5C7 9.32843 7.67157 10 8.5 10V9C8.22386 9 8 8.77614 8 8.5H7ZM15.5 9L8.5 9L8.5 10L15.5 10V9Z" fill="#5EE192"/>
</svg>
