<svg width="16" height="16" viewBox="0 0 16 16" fill="none" xmlns="http://www.w3.org/2000/svg">
<path d="M11 8.83333C10.7239 8.83333 10.5 9.05719 10.5 9.33333C10.5 9.60948 10.7239 9.83333 11 9.83333V8.83333ZM11.0067 9.83333C11.2828 9.83333 11.5067 9.60948 11.5067 9.33333C11.5067 9.05719 11.2828 8.83333 11.0067 8.83333V9.83333ZM12.6667 4.66667V4.16667V4.66667ZM13.1429 2.5H13.6429V1.5H13.1429V2.5ZM3.33333 4.66667V4.16667V4.66667ZM11 9.83333H11.0067V8.83333H11V9.83333ZM10.8333 9.33333C10.8333 9.24129 10.908 9.16667 11 9.16667V10.1667C11.4602 10.1667 11.8333 9.79357 11.8333 9.33333H10.8333ZM11 9.16667C11.092 9.16667 11.1667 9.24129 11.1667 9.33333H10.1667C10.1667 9.79357 10.5398 10.1667 11 10.1667V9.16667ZM11.1667 9.33333C11.1667 9.42538 11.092 9.5 11 9.5V8.5C10.5398 8.5 10.1667 8.8731 10.1667 9.33333H11.1667ZM11 9.5C10.908 9.5 10.8333 9.42538 10.8333 9.33333H11.8333C11.8333 8.8731 11.4602 8.5 11 8.5V9.5ZM13.5 6V12.6667H14.5V6H13.5ZM12.6667 13.5H3.33333V14.5H12.6667V13.5ZM2.5 12.6667V3.33333H1.5V12.6667H2.5ZM3.33333 13.5C2.8731 13.5 2.5 13.1269 2.5 12.6667H1.5C1.5 13.6792 2.32081 14.5 3.33333 14.5V13.5ZM13.5 12.6667C13.5 13.1269 13.1269 13.5 12.6667 13.5V14.5C13.6792 14.5 14.5 13.6792 14.5 12.6667H13.5ZM14.5 6C14.5 4.98748 13.6792 4.16667 12.6667 4.16667V5.16667C13.1269 5.16667 13.5 5.53976 13.5 6H14.5ZM3.33333 2.5H13.1429V1.5H3.33333V2.5ZM2.5 3.33333C2.5 2.8731 2.8731 2.5 3.33333 2.5V1.5C2.32081 1.5 1.5 2.32081 1.5 3.33333H2.5ZM1.5 3.33333C1.5 4.34585 2.32081 5.16667 3.33333 5.16667V4.16667C2.8731 4.16667 2.5 3.79357 2.5 3.33333H1.5ZM12.6667 4.16667L3.33333 4.16667L3.33333 5.16667L12.6667 5.16667V4.16667Z" fill="#5EE192"/>
</svg>
