<?xml version="1.0" standalone="no"?>
<!DOCTYPE svg PUBLIC "-//W3C//DTD SVG 20010904//EN"
 "http://www.w3.org/TR/2001/REC-SVG-20010904/DTD/svg10.dtd">
<svg version="1.0" xmlns="http://www.w3.org/2000/svg"
 width="1040.000000pt" height="1040.000000pt" viewBox="0 0 1040.000000 1040.000000"
 preserveAspectRatio="xMidYMid meet">
<metadata>
Created by potrace 1.14, written by Peter Selinger 2001-2017
</metadata>
<g transform="translate(0.000000,1040.000000) scale(0.100000,-0.100000)"
fill="#000000" stroke="none">
<path d="M889 10395 c-3 -2 -35 -9 -73 -15 -192 -31 -381 -186 -482 -398 -51
-107 -72 -212 -69 -347 2 -66 5 -127 7 -135 36 -139 78 -230 150 -325 28 -36
150 -155 160 -155 4 0 15 -8 25 -18 10 -10 56 -50 103 -88 47 -38 87 -71 90
-74 3 -4 57 -48 120 -100 63 -51 120 -98 125 -104 6 -6 57 -49 115 -95 58 -47
107 -87 110 -90 3 -4 28 -24 55 -46 28 -21 61 -49 75 -61 14 -13 81 -68 150
-124 69 -56 134 -109 145 -118 11 -9 43 -35 70 -57 28 -22 59 -48 70 -57 11
-10 63 -52 115 -94 154 -124 172 -138 184 -149 6 -6 42 -34 80 -64 37 -29 75
-59 85 -67 9 -7 45 -37 81 -65 36 -28 81 -64 100 -80 159 -128 200 -159 209
-159 5 0 11 -4 13 -9 6 -17 270 -210 339 -249 74 -41 84 -47 89 -53 3 -3 21
-12 40 -21 19 -9 52 -28 73 -42 21 -14 40 -26 42 -26 2 0 28 -14 57 -31 160
-96 272 -159 279 -159 5 0 9 -3 9 -7 0 -5 23 -19 50 -32 28 -14 50 -29 50 -35
0 -5 2 -7 5 -4 5 5 206 -109 233 -132 6 -6 12 -8 12 -5 0 4 7 0 15 -7 33 -30
45 -38 45 -32 0 4 8 -3 19 -14 10 -12 22 -22 27 -22 13 0 124 -109 124 -121 0
-6 4 -7 10 -4 6 3 10 3 10 -2 0 -4 10 -20 23 -35 12 -14 30 -36 40 -48 25 -29
87 -127 87 -136 0 -4 6 -15 14 -23 13 -15 85 -176 90 -201 1 -3 5 -11 9 -17 5
-7 6 -13 3 -13 -3 0 -1 -11 4 -25 10 -25 16 -53 26 -110 3 -16 9 -49 14 -73 4
-24 8 -97 8 -162 1 -123 -3 -135 -43 -142 -11 -1 -22 -5 -25 -8 -3 -3 -30 -15
-60 -28 -209 -88 -371 -123 -570 -125 -193 -1 -322 24 -499 95 -90 36 -245
118 -261 138 -3 3 -22 16 -42 29 -21 12 -38 26 -38 31 0 5 -8 11 -18 14 -10 3
-51 37 -92 76 -41 38 -78 69 -82 70 -5 0 -8 4 -8 8 0 5 -21 31 -47 58 -27 27
-59 65 -73 83 -14 18 -35 45 -47 58 -13 14 -23 29 -23 34 0 4 -6 14 -13 21
-32 33 -85 120 -152 251 -79 151 -94 214 -110 438 -6 81 -20 194 -25 194 -1 0
-3 8 -5 17 -8 41 -29 98 -63 167 -44 90 -111 161 -306 326 -26 22 -65 56 -85
75 -21 19 -53 48 -72 64 -19 16 -52 45 -74 65 -23 20 -74 65 -114 101 -41 36
-88 78 -105 94 -17 16 -56 47 -86 70 -30 22 -58 45 -62 51 -5 7 -8 7 -8 0 0
-6 -3 -6 -8 1 -9 14 -116 64 -136 64 -8 0 -17 4 -20 8 -2 4 -18 9 -35 10 -17
1 -41 6 -53 10 -38 14 -188 7 -268 -12 -199 -49 -363 -177 -468 -368 -89 -161
-112 -395 -57 -585 19 -66 94 -223 107 -223 4 0 8 -6 8 -14 0 -13 105 -117
215 -211 32 -27 75 -66 95 -85 21 -19 55 -49 77 -67 21 -17 52 -44 70 -60 17
-15 53 -46 79 -68 26 -22 54 -47 63 -55 9 -9 50 -45 91 -80 41 -36 80 -69 86
-75 6 -5 39 -35 74 -65 35 -30 73 -64 86 -75 12 -11 43 -38 70 -60 26 -22 57
-49 69 -60 11 -11 50 -45 85 -75 36 -30 75 -65 88 -78 12 -13 22 -21 22 -18 0
3 10 -5 23 -17 12 -12 51 -47 86 -77 113 -97 146 -125 157 -135 30 -26 133
-116 163 -141 19 -16 55 -47 80 -70 25 -22 59 -52 75 -65 16 -13 38 -33 50
-44 18 -17 105 -92 191 -166 133 -114 236 -248 283 -369 32 -83 35 -94 37
-110 0 -8 5 -31 10 -50 4 -19 9 -48 11 -65 1 -16 3 -32 4 -35 5 -13 1 -163 -5
-220 -4 -36 -7 -71 -8 -77 0 -7 -4 -13 -8 -13 -4 0 -6 -8 -4 -17 1 -10 -2 -24
-8 -30 -5 -7 -6 -13 -2 -13 4 0 2 -7 -5 -15 -7 -8 -10 -15 -6 -15 10 0 -34
-108 -68 -168 -57 -100 -61 -107 -66 -112 -3 -3 -23 -26 -44 -52 l-38 -47 -26
17 c-60 39 -152 127 -180 174 -9 16 -20 28 -24 28 -4 0 -8 5 -8 11 0 7 -10 28
-22 48 -13 20 -23 38 -24 41 -4 22 -18 67 -24 75 -11 16 -31 125 -35 197 -2
37 -6 72 -10 78 -3 5 -2 10 3 10 5 0 8 12 7 28 -1 15 3 52 9 82 32 158 -6 265
-135 391 -44 42 -79 75 -79 72 0 -2 -19 14 -42 36 -24 22 -54 49 -68 61 -25
22 -135 118 -176 155 -19 18 -43 38 -144 125 -14 12 -49 43 -79 68 -30 26 -59
52 -65 57 -170 155 -382 223 -596 192 -44 -7 -173 -47 -180 -56 -3 -4 -20 -13
-37 -20 -18 -8 -33 -18 -33 -24 0 -6 -3 -7 -7 -4 -12 12 -203 -159 -203 -182
0 -5 -6 -16 -13 -23 -26 -27 -57 -91 -85 -175 -34 -102 -44 -159 -45 -263 -1
-95 16 -223 32 -245 4 -5 15 -29 24 -52 18 -46 46 -110 83 -190 13 -28 24 -57
24 -62 0 -6 4 -11 10 -11 5 0 9 -3 8 -8 -4 -9 224 -466 234 -470 4 -2 8 -12 8
-23 0 -10 3 -19 8 -19 4 0 20 -26 35 -57 16 -32 34 -67 40 -78 7 -11 44 -76
82 -144 39 -67 78 -135 87 -150 10 -14 24 -39 33 -56 8 -16 29 -50 45 -75 17
-25 36 -57 42 -72 7 -16 16 -28 20 -28 4 0 8 -7 8 -15 0 -8 4 -15 9 -15 5 0
11 -8 15 -18 5 -16 20 -41 39 -66 4 -6 48 -72 97 -146 101 -153 95 -144 152
-225 23 -33 45 -62 49 -65 3 -3 9 -15 13 -27 4 -13 11 -23 16 -23 5 0 23 -22
41 -50 18 -27 36 -50 41 -50 4 0 8 -5 8 -10 0 -9 25 -44 105 -145 14 -16 55
-69 93 -116 37 -47 74 -93 82 -102 8 -9 20 -22 25 -29 9 -12 92 -108 170 -197
54 -62 239 -253 319 -330 137 -132 151 -145 216 -201 35 -30 73 -64 86 -75 38
-34 68 -59 106 -87 20 -15 42 -33 50 -40 7 -8 60 -48 118 -91 58 -43 112 -84
122 -92 9 -7 18 -11 21 -9 2 2 12 -5 22 -16 10 -11 24 -20 31 -20 7 0 14 -4
16 -8 4 -11 182 -122 195 -122 6 0 13 -3 15 -7 2 -5 17 -16 33 -26 33 -19 352
-177 400 -197 62 -26 151 -61 165 -65 8 -3 49 -16 90 -31 41 -14 82 -27 90
-29 8 -2 40 -10 70 -19 30 -9 58 -16 62 -17 4 0 22 -5 40 -10 18 -5 69 -17
113 -25 95 -19 108 -22 115 -24 3 -1 8 -2 11 -2 4 1 32 -3 63 -8 127 -21 228
-25 566 -25 420 0 529 9 775 60 17 4 39 8 50 9 12 1 26 5 32 9 6 4 24 8 40 9
15 1 30 6 33 10 3 4 20 8 38 10 18 1 32 6 32 11 0 4 4 5 10 2 5 -3 23 1 40 10
16 8 31 15 32 14 10 -5 232 74 326 117 166 74 218 99 229 107 7 5 39 22 70 38
32 16 65 34 73 39 8 5 44 26 80 47 66 39 187 115 205 130 6 4 34 24 63 43 28
19 52 39 52 43 0 5 4 6 8 3 5 -3 18 3 28 12 10 10 48 40 84 67 36 27 67 53 68
57 2 4 10 8 17 8 7 0 15 4 17 8 2 4 32 32 67 61 35 29 70 58 77 64 6 7 33 30
59 52 26 22 79 70 118 108 39 37 71 67 72 67 3 0 215 217 270 275 25 28 60 64
76 81 16 17 26 33 22 37 -3 4 -2 7 3 7 13 0 41 27 76 72 15 19 37 45 50 59 13
14 37 42 53 63 17 22 35 44 40 50 6 6 37 45 70 86 33 41 63 80 68 85 27 33
135 179 198 267 40 57 76 105 80 108 3 3 14 20 23 37 9 18 21 33 26 33 6 0 10
6 10 14 0 8 6 21 13 28 12 12 56 78 169 253 88 137 178 286 178 295 0 6 3 10
8 10 4 0 12 10 18 23 26 52 78 144 95 169 11 14 19 31 19 37 0 6 5 11 12 11 6
0 8 3 5 7 -4 3 -3 11 2 17 47 59 444 847 444 884 0 6 4 12 9 12 4 0 7 3 6 8 0
4 7 25 17 47 23 52 38 88 40 98 2 4 3 8 5 10 2 2 8 28 16 67 15 68 14 219 -1
290 -16 77 -22 103 -25 108 -2 1 -4 7 -5 12 -1 6 -3 11 -5 13 -1 1 -3 11 -5
22 -2 11 -9 21 -14 23 -6 2 -11 12 -11 23 0 10 -5 19 -11 19 -6 0 -9 7 -5 15
3 8 1 15 -4 15 -5 0 -15 12 -22 28 -34 66 -56 93 -135 162 -80 72 -213 140
-298 154 -11 2 -20 4 -20 6 0 15 -266 13 -290 -2 -6 -3 -27 -9 -48 -13 -20 -4
-37 -11 -37 -17 0 -5 -4 -7 -8 -4 -26 16 -230 -126 -354 -247 -10 -9 -23 -17
-29 -17 -5 0 -7 -5 -4 -10 3 -6 2 -10 -4 -10 -6 0 -18 -8 -28 -18 -10 -10 -45
-40 -77 -68 -33 -27 -69 -58 -80 -69 -12 -11 -50 -45 -85 -75 -35 -30 -73 -64
-85 -75 -12 -11 -55 -49 -96 -85 -104 -92 -127 -118 -154 -175 -31 -65 -52
-183 -37 -210 14 -26 21 -269 9 -340 -7 -40 -27 -115 -37 -140 -57 -132 -133
-234 -235 -314 l-58 -46 -35 40 c-70 79 -173 258 -173 300 0 7 -4 16 -8 19 -8
4 -15 32 -38 136 -15 69 -26 275 -15 286 2 2 5 19 7 36 3 38 19 129 24 136 2
1 3 5 4 10 20 93 93 246 141 296 17 17 63 60 104 96 40 36 79 70 85 75 6 6 45
39 86 75 41 36 77 68 80 71 3 3 31 26 62 51 31 26 54 49 51 52 -4 3 -2 6 4 6
6 0 32 19 58 43 58 51 77 67 136 118 25 21 57 49 71 61 13 13 49 43 78 68 29
25 63 54 76 65 12 11 36 31 53 45 17 14 51 44 76 68 24 23 47 42 50 42 3 0 19
13 35 30 16 16 31 30 34 30 2 0 25 19 50 43 25 23 54 49 64 57 11 8 41 34 67
57 26 24 51 43 57 43 5 0 6 5 3 10 -3 6 -1 10 4 10 6 0 19 8 29 18 21 19 136
121 173 152 33 28 120 103 133 115 6 6 49 43 96 84 47 40 106 92 132 115 26
22 75 66 110 96 91 79 188 174 188 183 0 4 9 17 20 29 33 36 98 179 117 259
29 118 28 284 -1 394 -2 6 -6 24 -11 40 -4 17 -12 36 -18 43 -5 6 -6 12 -2 12
4 0 2 6 -4 13 -6 8 -8 17 -4 20 3 4 2 7 -4 7 -6 0 -14 11 -17 25 -4 14 -11 25
-17 25 -6 0 -8 4 -5 8 3 5 -6 21 -20 37 -13 15 -24 31 -24 35 0 4 -29 37 -64
73 -145 148 -320 219 -526 212 -106 -4 -111 -4 -195 -35 -33 -11 -66 -22 -72
-22 -7 -1 -13 -4 -13 -8 0 -4 -18 -15 -40 -25 -22 -10 -40 -22 -40 -26 0 -4
-8 -10 -18 -13 -9 -3 -40 -26 -67 -52 -28 -25 -67 -59 -87 -76 -21 -17 -53
-44 -71 -62 -32 -29 -119 -107 -210 -186 -23 -19 -51 -44 -63 -55 -13 -11 -49
-42 -80 -70 -32 -27 -68 -60 -81 -72 -12 -12 -23 -20 -23 -18 0 5 -101 -98
-125 -127 -27 -34 -41 -55 -66 -108 -12 -25 -26 -53 -31 -64 -5 -10 -12 -28
-14 -40 -3 -11 -6 -25 -8 -31 -14 -50 -18 -66 -21 -96 -2 -19 -4 -34 -5 -34
-1 0 -3 -34 -6 -75 -10 -190 -13 -213 -45 -316 -32 -106 -130 -290 -213 -400
-17 -23 -40 -54 -50 -68 -81 -112 -286 -313 -404 -396 -100 -71 -269 -165
-317 -176 -16 -3 -49 -15 -73 -25 -43 -19 -72 -27 -125 -35 -16 -2 -32 -6 -36
-8 -29 -18 -314 -27 -412 -12 -47 6 -146 28 -209 44 -111 30 -331 124 -325
140 2 6 0 12 -4 12 -5 0 -8 8 -6 18 2 9 7 71 10 137 6 130 9 162 18 185 3 8 9
33 13 55 8 45 8 44 18 67 4 9 9 22 10 30 19 93 150 329 232 418 59 64 112 116
143 140 18 14 38 30 45 36 14 13 154 104 160 104 2 0 45 25 95 55 51 30 94 55
97 55 3 0 18 8 32 19 28 19 111 67 149 85 13 6 23 14 23 19 0 4 4 7 10 7 8 0
184 99 230 130 8 6 22 13 30 17 8 3 26 14 40 23 25 17 80 49 150 86 19 11 37
21 40 24 12 12 101 70 108 70 4 0 14 9 22 20 8 11 20 20 27 20 7 0 13 4 13 9
0 5 13 14 30 21 16 7 27 16 24 21 -3 5 1 9 10 9 8 0 16 3 18 8 3 6 49 43 124
97 15 11 32 25 38 30 38 35 106 85 116 85 6 0 8 5 5 10 -3 6 0 10 9 10 8 0 16
3 18 8 2 4 46 41 98 82 52 41 97 77 100 80 3 3 48 39 100 81 235 188 335 272
338 280 2 5 10 9 18 9 8 0 14 4 14 9 0 5 9 13 20 16 11 4 18 11 15 16 -4 5 -2
9 4 9 5 0 16 6 23 13 7 7 25 21 39 32 25 19 209 168 254 207 41 34 162 134
198 163 21 17 44 35 50 41 47 42 147 124 151 124 3 0 16 10 28 23 13 12 43 38
67 57 23 19 57 47 74 62 18 14 64 53 102 85 39 32 77 64 85 71 8 7 26 21 40
33 138 111 256 232 244 250 -3 5 0 9 5 9 6 0 11 7 11 15 0 8 4 15 8 15 4 0 14
15 21 33 31 73 53 133 57 157 3 14 9 41 13 61 22 98 10 262 -29 380 -25 79
-78 182 -110 216 -11 12 -20 27 -20 33 0 5 -3 10 -7 10 -5 0 -21 13 -38 28
-40 37 -140 112 -149 112 -5 0 -20 9 -34 19 -15 10 -31 20 -37 21 -5 1 -24 7
-40 14 -17 7 -53 17 -80 21 -28 5 -57 10 -65 12 -31 6 -167 6 -205 -1 -64 -11
-175 -47 -175 -57 0 -5 -8 -9 -18 -9 -20 0 -142 -77 -142 -91 0 -5 -5 -9 -10
-9 -6 0 -21 -10 -34 -22 -13 -13 -38 -36 -57 -52 -90 -77 -185 -162 -191 -171
-4 -5 -8 -7 -8 -3 0 4 -10 -3 -23 -15 -28 -26 -88 -80 -142 -126 -127 -108
-177 -153 -237 -214 -38 -38 -68 -75 -68 -83 0 -8 -4 -14 -9 -14 -11 0 -79
-133 -85 -166 -2 -11 -11 -36 -19 -56 -9 -20 -13 -39 -10 -42 3 -2 1 -11 -3
-18 -5 -7 -9 -22 -9 -33 0 -11 -4 -26 -8 -32 -4 -7 -3 -22 3 -33 6 -11 8 -25
5 -31 -6 -8 -7 -64 -4 -119 1 -24 -9 -61 -22 -76 -6 -8 -9 -14 -5 -14 9 0 -41
-96 -77 -150 -43 -62 -61 -83 -142 -164 -89 -89 -111 -108 -210 -178 -44 -32
-85 -62 -92 -68 -7 -5 -15 -10 -19 -10 -3 0 -32 -16 -64 -35 -126 -76 -467
-229 -580 -260 -14 -3 -34 -10 -45 -15 -16 -7 -91 -30 -150 -46 -5 -2 -46 -14
-91 -28 -45 -13 -96 -27 -115 -30 -19 -3 -90 -19 -159 -36 -69 -16 -141 -32
-160 -36 -19 -3 -44 -8 -55 -10 -11 -2 -36 -6 -55 -9 -19 -4 -46 -9 -60 -11
-14 -3 -36 -7 -50 -8 -14 -2 -38 -6 -55 -10 -16 -3 -47 -8 -67 -11 -21 -2 -53
-7 -70 -10 -35 -6 -114 -14 -213 -20 -120 -8 -650 -4 -650 5 0 1 -20 3 -45 5
-25 2 -45 4 -45 5 0 1 -18 3 -40 5 -22 2 -56 7 -75 10 -19 4 -48 8 -65 10 -16
2 -30 4 -30 5 0 1 -11 3 -25 5 -25 3 -53 7 -150 26 -30 6 -68 13 -85 16 -16 2
-59 11 -95 19 -36 9 -72 16 -80 18 -36 6 -129 29 -168 42 -23 8 -46 13 -50 12
-4 0 -14 1 -22 5 -8 3 -55 18 -105 32 -101 30 -256 82 -295 98 -14 6 -28 11
-32 12 -5 2 -10 4 -13 5 -3 1 -8 3 -12 4 -5 1 -25 10 -47 19 -21 9 -40 17 -42
17 -10 0 -185 85 -244 118 -36 20 -67 37 -70 37 -10 0 -85 49 -92 59 -4 6 -8
7 -8 3 0 -4 -6 -3 -12 2 -7 6 -58 44 -114 85 -118 88 -235 201 -298 289 -49
70 -106 176 -106 200 0 9 -4 18 -9 21 -4 3 -8 54 -7 113 1 59 -2 126 -7 148
-5 22 -11 51 -13 64 -3 13 -9 32 -14 42 -6 10 -10 25 -10 33 0 29 -57 141
-103 201 -44 59 -119 135 -183 186 -18 14 -59 48 -91 77 -32 28 -99 86 -149
129 -50 43 -119 103 -154 133 -35 30 -75 64 -89 75 -14 11 -38 31 -52 45 -52
50 -89 80 -99 80 -5 0 -10 5 -10 10 0 6 -5 10 -10 10 -6 0 -27 10 -48 23 -41
26 -148 67 -190 74 -40 7 -238 13 -243 8z m4429 -5630 c55 -25 98 -65 295
-274 42 -45 77 -85 77 -90 0 -7 -116 -130 -352 -374 -43 -44 -78 -83 -79 -86
0 -3 -19 -21 -41 -40 -26 -23 -42 -31 -47 -23 -5 9 -157 170 -321 342 -25 26
-74 78 -109 115 l-63 67 44 47 c25 25 85 88 134 140 49 52 102 106 118 122 32
32 108 72 146 77 13 2 26 5 28 6 11 12 124 -8 170 -29z"/>
</g>
</svg>
